<svg width="current" height="current" viewBox="0 0 18 15" fill="none" xmlns="http://www.w3.org/2000/svg">
<g id="Arrow - Right">
<path id="Stroke 1" d="M17.5 7.27539C17.5 7.65509 17.2178 7.96888 16.8518 8.01854L16.75 8.02539L1.75 8.02539C1.33579 8.02539 1 7.6896 1 7.27539C1 6.89569 1.28215 6.5819 1.64823 6.53224L1.75 6.52539L16.75 6.52539C17.1642 6.52539 17.5 6.86118 17.5 7.27539Z" fill="current" stroke="current"/>
<path id="Stroke 3" d="M8.32899 12.7675C8.62251 13.0598 8.62354 13.5347 8.33127 13.8282C8.06558 14.095 7.64897 14.1201 7.35489 13.9029L7.27062 13.8305L1.22062 7.80647C0.95298 7.53998 0.928634 7.12187 1.14759 6.8278L1.22057 6.74357L7.27057 0.718573C7.56407 0.426287 8.03895 0.42727 8.33123 0.720769C8.59695 0.987586 8.62029 1.4043 8.40183 1.69746L8.32904 1.78143L2.813 7.2753L8.32899 12.7675Z" fill="current" stroke="current"/>
</g>
</svg>
