<svg width="25" height="25" viewBox="0 0 25 25" fill="none" xmlns="http://www.w3.org/2000/svg">
<g id="icon/Magic pencil A">
<g id="Vector">
<path d="M4.18064 20.181L5.78928 21.7896C6.29727 22.2976 7.01692 22.594 7.69424 22.594C8.37156 22.594 9.09121 22.2976 9.5992 21.7896L19.5754 11.8135L20.0834 6.98752C20.168 6.39486 19.7024 5.88687 19.1097 5.88687C19.0674 5.88687 19.0251 5.88687 18.9827 5.88687L14.1568 6.39486L4.18064 16.371C3.12233 17.4294 3.12233 19.1227 4.18064 20.181ZM15.0881 8.34217L17.9244 8.04584L17.6281 10.8821L12.8165 15.736L11.5042 17.0484L8.92188 14.4661L10.2342 13.1537L15.0881 8.34217ZM5.61995 17.8104L7.48258 15.9054L10.0649 18.4877L8.1599 20.3503C7.99057 20.5197 7.7789 20.562 7.69424 20.562C7.60957 20.562 7.39791 20.5197 7.22858 20.3503L5.61995 18.7417C5.36595 18.4877 5.36595 18.0644 5.61995 17.8104Z" fill="white"/>
<path d="M4.84738 2.01328C5.01333 1.32891 5.98667 1.32891 6.15262 2.01328L6.60924 3.89639C6.66849 4.14073 6.85927 4.33151 7.10361 4.39075L8.98672 4.84738C9.67109 5.01333 9.67109 5.98667 8.98672 6.15262L7.10361 6.60924C6.85927 6.66849 6.66849 6.85927 6.60924 7.10361L6.15262 8.98672C5.98667 9.67109 5.01333 9.67109 4.84738 8.98672L4.39076 7.10361C4.33151 6.85927 4.14073 6.66849 3.89639 6.60924L2.01328 6.15262C1.32891 5.98667 1.32891 5.01333 2.01328 4.84738L3.89639 4.39076C4.14073 4.33151 4.33151 4.14073 4.39075 3.89639L4.84738 2.01328Z" fill="white"/>
<path fill-rule="evenodd" clip-rule="evenodd" d="M5.5 2.74146L5.1739 4.08629C5.04355 4.62384 4.62384 5.04355 4.08629 5.1739L2.74146 5.5L4.08629 5.8261C4.62384 5.95645 5.04355 6.37616 5.1739 6.91371L5.5 8.25854L5.8261 6.91371C5.95645 6.37616 6.37616 5.95645 6.91371 5.8261L8.25854 5.5L6.91371 5.1739C6.37616 5.04355 5.95645 4.62384 5.8261 4.08629L5.5 2.74146ZM6.15262 2.01328C5.98667 1.32891 5.01333 1.32891 4.84738 2.01328L4.39075 3.89639C4.33151 4.14073 4.14073 4.33151 3.89639 4.39076L2.01328 4.84738C1.32891 5.01333 1.32891 5.98667 2.01328 6.15262L3.89639 6.60924C4.14073 6.66849 4.33151 6.85927 4.39076 7.10361L4.84738 8.98672C5.01333 9.67109 5.98667 9.67109 6.15262 8.98672L6.60924 7.10361C6.66849 6.85927 6.85927 6.66849 7.10361 6.60924L8.98672 6.15262C9.67109 5.98667 9.67109 5.01333 8.98672 4.84738L7.10361 4.39075C6.85927 4.33151 6.66849 4.14073 6.60924 3.89639L6.15262 2.01328Z" fill="white"/>
<path d="M20.0105 17.885C20.135 17.3717 20.865 17.3717 20.9895 17.885L21.3319 19.2973C21.3764 19.4805 21.5195 19.6236 21.7027 19.6681L23.115 20.0105C23.6283 20.135 23.6283 20.865 23.115 20.9895L21.7027 21.3319C21.5195 21.3764 21.3764 21.5195 21.3319 21.7027L20.9895 23.115C20.865 23.6283 20.135 23.6283 20.0105 23.115L19.6681 21.7027C19.6236 21.5195 19.4805 21.3764 19.2973 21.3319L17.885 20.9895C17.3717 20.865 17.3717 20.135 17.885 20.0105L19.2973 19.6681C19.4805 19.6236 19.6236 19.4805 19.6681 19.2973L20.0105 17.885Z" fill="white"/>
<path fill-rule="evenodd" clip-rule="evenodd" d="M20.5 18.4311L20.2554 19.4397C20.1577 19.8429 19.8429 20.1577 19.4397 20.2554L18.4311 20.5L19.4397 20.7446C19.8429 20.8423 20.1577 21.1571 20.2554 21.5603L20.5 22.5689L20.7446 21.5603C20.8423 21.1571 21.1571 20.8423 21.5603 20.7446L22.5689 20.5L21.5603 20.2554C21.1571 20.1577 20.8423 19.8429 20.7446 19.4397L20.5 18.4311ZM20.9895 17.885C20.865 17.3717 20.135 17.3717 20.0105 17.885L19.6681 19.2973C19.6236 19.4805 19.4805 19.6236 19.2973 19.6681L17.885 20.0105C17.3717 20.135 17.3717 20.865 17.885 20.9895L19.2973 21.3319C19.4805 21.3764 19.6236 21.5195 19.6681 21.7027L20.0105 23.115C20.135 23.6283 20.865 23.6283 20.9895 23.115L21.3319 21.7027C21.3764 21.5195 21.5195 21.3764 21.7027 21.3319L23.115 20.9895C23.6283 20.865 23.6283 20.135 23.115 20.0105L21.7027 19.6681C21.5195 19.6236 21.3764 19.4805 21.3319 19.2973L20.9895 17.885Z" fill="white"/>
<path d="M23.5 2.5C23.5 3.05228 23.0523 3.5 22.5 3.5C21.9477 3.5 21.5 3.05228 21.5 2.5C21.5 1.94772 21.9477 1.5 22.5 1.5C23.0523 1.5 23.5 1.94772 23.5 2.5Z" fill="white"/>
<path d="M13.5 2.5C13.5 3.05228 13.0523 3.5 12.5 3.5C11.9477 3.5 11.5 3.05228 11.5 2.5C11.5 1.94772 11.9477 1.5 12.5 1.5C13.0523 1.5 13.5 1.94772 13.5 2.5Z" fill="white"/>
<path d="M4.5 12.5C4.5 13.0523 4.05228 13.5 3.5 13.5C2.94772 13.5 2.5 13.0523 2.5 12.5C2.5 11.9477 2.94772 11.5 3.5 11.5C4.05228 11.5 4.5 11.9477 4.5 12.5Z" fill="white"/>
</g>
</g>
</svg>
